<svg class="plot-d6a7b5" fill="currentColor" font-family="Seravek, system-ui, sans-serif" font-size="10" text-anchor="middle" width="500" height="500" viewBox="0 0 500 500" xmlns="http://www.w3.org/2000/svg" xmlns:xlink="http://www.w3.org/1999/xlink"><style>:where(.plot-d6a7b5) {
  --plot-background: white;
  display: block;
  height: auto;
  height: intrinsic;
  max-width: 100%;
}
:where(.plot-d6a7b5 text),
:where(.plot-d6a7b5 tspan) {
  white-space: pre;
}</style><g aria-label="y-grid" aria-hidden="true" stroke="currentColor" stroke-opacity="0.1"><line x1="40" x2="480" y1="480" y2="480"/><line x1="40" x2="480" y1="475.4545454545455" y2="475.4545454545455"/><line x1="40" x2="480" y1="470.90909090909093" y2="470.90909090909093"/><line x1="40" x2="480" y1="466.36363636363643" y2="466.36363636363643"/><line x1="40" x2="480" y1="461.81818181818176" y2="461.81818181818176"/><line x1="40" x2="480" y1="457.27272727272725" y2="457.27272727272725"/><line x1="40" x2="480" y1="452.72727272727275" y2="452.72727272727275"/><line x1="40" x2="480" y1="448.1818181818182" y2="448.1818181818182"/><line x1="40" x2="480" y1="443.6363636363637" y2="443.6363636363637"/><line x1="40" x2="480" y1="439.0909090909091" y2="439.0909090909091"/><line x1="40" x2="480" y1="434.5454545454545" y2="434.5454545454545"/><line x1="40" x2="480" y1="429.99999999999994" y2="429.99999999999994"/><line x1="40" x2="480" y1="425.45454545454544" y2="425.45454545454544"/><line x1="40" x2="480" y1="420.90909090909093" y2="420.90909090909093"/><line x1="40" x2="480" y1="416.3636363636364" y2="416.3636363636364"/><line x1="40" x2="480" y1="411.81818181818187" y2="411.81818181818187"/><line x1="40" x2="480" y1="407.27272727272725" y2="407.27272727272725"/><line x1="40" x2="480" y1="402.7272727272727" y2="402.7272727272727"/><line x1="40" x2="480" y1="398.1818181818182" y2="398.1818181818182"/><line x1="40" x2="480" y1="393.6363636363636" y2="393.6363636363636"/><line x1="40" x2="480" y1="389.0909090909091" y2="389.0909090909091"/><line x1="40" x2="480" y1="384.54545454545456" y2="384.54545454545456"/><line x1="40" x2="480" y1="380" y2="380"/><line x1="40" x2="480" y1="375.45454545454544" y2="375.45454545454544"/><line x1="40" x2="480" y1="370.9090909090909" y2="370.9090909090909"/><line x1="40" x2="480" y1="366.3636363636364" y2="366.3636363636364"/><line x1="40" x2="480" y1="361.8181818181818" y2="361.8181818181818"/><line x1="40" x2="480" y1="357.2727272727273" y2="357.2727272727273"/><line x1="40" x2="480" y1="352.72727272727275" y2="352.72727272727275"/><line x1="40" x2="480" y1="348.1818181818182" y2="348.1818181818182"/><line x1="40" x2="480" y1="343.6363636363636" y2="343.6363636363636"/><line x1="40" x2="480" y1="339.09090909090907" y2="339.09090909090907"/><line x1="40" x2="480" y1="334.54545454545456" y2="334.54545454545456"/><line x1="40" x2="480" y1="330" y2="330"/><line x1="40" x2="480" y1="325.45454545454544" y2="325.45454545454544"/><line x1="40" x2="480" y1="320.90909090909093" y2="320.90909090909093"/><line x1="40" x2="480" y1="316.3636363636364" y2="316.3636363636364"/><line x1="40" x2="480" y1="311.8181818181818" y2="311.8181818181818"/><line x1="40" x2="480" y1="307.27272727272725" y2="307.27272727272725"/><line x1="40" x2="480" y1="302.72727272727275" y2="302.72727272727275"/><line x1="40" x2="480" y1="298.1818181818182" y2="298.1818181818182"/><line x1="40" x2="480" y1="293.6363636363636" y2="293.6363636363636"/><line x1="40" x2="480" y1="289.0909090909091" y2="289.0909090909091"/><line x1="40" x2="480" y1="284.5454545454545" y2="284.5454545454545"/><line x1="40" x2="480" y1="280" y2="280"/><line x1="40" x2="480" y1="275.45454545454544" y2="275.45454545454544"/><line x1="40" x2="480" y1="270.90909090909093" y2="270.90909090909093"/><line x1="40" x2="480" y1="266.3636363636364" y2="266.3636363636364"/><line x1="40" x2="480" y1="261.8181818181818" y2="261.8181818181818"/><line x1="40" x2="480" y1="257.2727272727273" y2="257.2727272727273"/><line x1="40" x2="480" y1="252.72727272727275" y2="252.72727272727275"/><line x1="40" x2="480" y1="248.1818181818182" y2="248.1818181818182"/><line x1="40" x2="480" y1="243.63636363636363" y2="243.63636363636363"/><line x1="40" x2="480" y1="239.0909090909091" y2="239.0909090909091"/><line x1="40" x2="480" y1="234.54545454545456" y2="234.54545454545456"/><line x1="40" x2="480" y1="229.99999999999997" y2="229.99999999999997"/><line x1="40" x2="480" y1="225.45454545454547" y2="225.45454545454547"/><line x1="40" x2="480" y1="220.90909090909093" y2="220.90909090909093"/><line x1="40" x2="480" y1="216.36363636363635" y2="216.36363636363635"/><line x1="40" x2="480" y1="211.8181818181818" y2="211.8181818181818"/><line x1="40" x2="480" y1="207.27272727272728" y2="207.27272727272728"/><line x1="40" x2="480" y1="202.7272727272727" y2="202.7272727272727"/><line x1="40" x2="480" y1="198.1818181818182" y2="198.1818181818182"/><line x1="40" x2="480" y1="193.63636363636365" y2="193.63636363636365"/><line x1="40" x2="480" y1="189.09090909090907" y2="189.09090909090907"/><line x1="40" x2="480" y1="184.54545454545453" y2="184.54545454545453"/><line x1="40" x2="480" y1="180" y2="180"/><line x1="40" x2="480" y1="175.45454545454547" y2="175.45454545454547"/><line x1="40" x2="480" y1="170.9090909090909" y2="170.9090909090909"/><line x1="40" x2="480" y1="166.36363636363637" y2="166.36363636363637"/><line x1="40" x2="480" y1="161.8181818181818" y2="161.8181818181818"/><line x1="40" x2="480" y1="157.27272727272725" y2="157.27272727272725"/><line x1="40" x2="480" y1="152.72727272727272" y2="152.72727272727272"/><line x1="40" x2="480" y1="148.1818181818182" y2="148.1818181818182"/><line x1="40" x2="480" y1="143.63636363636363" y2="143.63636363636363"/><line x1="40" x2="480" y1="139.0909090909091" y2="139.0909090909091"/><line x1="40" x2="480" y1="134.54545454545456" y2="134.54545454545456"/><line x1="40" x2="480" y1="130" y2="130"/><line x1="40" x2="480" y1="125.45454545454547" y2="125.45454545454547"/><line x1="40" x2="480" y1="120.9090909090909" y2="120.9090909090909"/><line x1="40" x2="480" y1="116.36363636363635" y2="116.36363636363635"/><line x1="40" x2="480" y1="111.81818181818183" y2="111.81818181818183"/><line x1="40" x2="480" y1="107.27272727272727" y2="107.27272727272727"/><line x1="40" x2="480" y1="102.72727272727272" y2="102.72727272727272"/><line x1="40" x2="480" y1="98.18181818181819" y2="98.18181818181819"/><line x1="40" x2="480" y1="93.63636363636363" y2="93.63636363636363"/><line x1="40" x2="480" y1="89.0909090909091" y2="89.0909090909091"/><line x1="40" x2="480" y1="84.54545454545455" y2="84.54545454545455"/><line x1="40" x2="480" y1="80" y2="80"/><line x1="40" x2="480" y1="75.45454545454545" y2="75.45454545454545"/><line x1="40" x2="480" y1="70.9090909090909" y2="70.9090909090909"/><line x1="40" x2="480" y1="66.36363636363637" y2="66.36363636363637"/><line x1="40" x2="480" y1="61.81818181818181" y2="61.81818181818181"/><line x1="40" x2="480" y1="57.27272727272728" y2="57.27272727272728"/><line x1="40" x2="480" y1="52.72727272727273" y2="52.72727272727273"/><line x1="40" x2="480" y1="48.18181818181818" y2="48.18181818181818"/><line x1="40" x2="480" y1="43.63636363636364" y2="43.63636363636364"/><line x1="40" x2="480" y1="39.09090909090909" y2="39.09090909090909"/><line x1="40" x2="480" y1="34.54545454545455" y2="34.54545454545455"/><line x1="40" x2="480" y1="30" y2="30"/></g><g aria-label="y-axis tick" aria-hidden="true" fill="none" stroke="currentColor"><path transform="translate(40,480)" d="M0,0L-6,0"/><path transform="translate(40,475.4545454545455)" d="M0,0L-6,0"/><path transform="translate(40,470.90909090909093)" d="M0,0L-6,0"/><path transform="translate(40,466.36363636363643)" d="M0,0L-6,0"/><path transform="translate(40,461.81818181818176)" d="M0,0L-6,0"/><path transform="translate(40,457.27272727272725)" d="M0,0L-6,0"/><path transform="translate(40,452.72727272727275)" d="M0,0L-6,0"/><path transform="translate(40,448.1818181818182)" d="M0,0L-6,0"/><path transform="translate(40,443.6363636363637)" d="M0,0L-6,0"/><path transform="translate(40,439.0909090909091)" d="M0,0L-6,0"/><path transform="translate(40,434.5454545454545)" d="M0,0L-6,0"/><path transform="translate(40,429.99999999999994)" d="M0,0L-6,0"/><path transform="translate(40,425.45454545454544)" d="M0,0L-6,0"/><path transform="translate(40,420.90909090909093)" d="M0,0L-6,0"/><path transform="translate(40,416.3636363636364)" d="M0,0L-6,0"/><path transform="translate(40,411.81818181818187)" d="M0,0L-6,0"/><path transform="translate(40,407.27272727272725)" d="M0,0L-6,0"/><path transform="translate(40,402.7272727272727)" d="M0,0L-6,0"/><path transform="translate(40,398.1818181818182)" d="M0,0L-6,0"/><path transform="translate(40,393.6363636363636)" d="M0,0L-6,0"/><path transform="translate(40,389.0909090909091)" d="M0,0L-6,0"/><path transform="translate(40,384.54545454545456)" d="M0,0L-6,0"/><path transform="translate(40,380)" d="M0,0L-6,0"/><path transform="translate(40,375.45454545454544)" d="M0,0L-6,0"/><path transform="translate(40,370.9090909090909)" d="M0,0L-6,0"/><path transform="translate(40,366.3636363636364)" d="M0,0L-6,0"/><path transform="translate(40,361.8181818181818)" d="M0,0L-6,0"/><path transform="translate(40,357.2727272727273)" d="M0,0L-6,0"/><path transform="translate(40,352.72727272727275)" d="M0,0L-6,0"/><path transform="translate(40,348.1818181818182)" d="M0,0L-6,0"/><path transform="translate(40,343.6363636363636)" d="M0,0L-6,0"/><path transform="translate(40,339.09090909090907)" d="M0,0L-6,0"/><path transform="translate(40,334.54545454545456)" d="M0,0L-6,0"/><path transform="translate(40,330)" d="M0,0L-6,0"/><path transform="translate(40,325.45454545454544)" d="M0,0L-6,0"/><path transform="translate(40,320.90909090909093)" d="M0,0L-6,0"/><path transform="translate(40,316.3636363636364)" d="M0,0L-6,0"/><path transform="translate(40,311.8181818181818)" d="M0,0L-6,0"/><path transform="translate(40,307.27272727272725)" d="M0,0L-6,0"/><path transform="translate(40,302.72727272727275)" d="M0,0L-6,0"/><path transform="translate(40,298.1818181818182)" d="M0,0L-6,0"/><path transform="translate(40,293.6363636363636)" d="M0,0L-6,0"/><path transform="translate(40,289.0909090909091)" d="M0,0L-6,0"/><path transform="translate(40,284.5454545454545)" d="M0,0L-6,0"/><path transform="translate(40,280)" d="M0,0L-6,0"/><path transform="translate(40,275.45454545454544)" d="M0,0L-6,0"/><path transform="translate(40,270.90909090909093)" d="M0,0L-6,0"/><path transform="translate(40,266.3636363636364)" d="M0,0L-6,0"/><path transform="translate(40,261.8181818181818)" d="M0,0L-6,0"/><path transform="translate(40,257.2727272727273)" d="M0,0L-6,0"/><path transform="translate(40,252.72727272727275)" d="M0,0L-6,0"/><path transform="translate(40,248.1818181818182)" d="M0,0L-6,0"/><path transform="translate(40,243.63636363636363)" d="M0,0L-6,0"/><path transform="translate(40,239.0909090909091)" d="M0,0L-6,0"/><path transform="translate(40,234.54545454545456)" d="M0,0L-6,0"/><path transform="translate(40,229.99999999999997)" d="M0,0L-6,0"/><path transform="translate(40,225.45454545454547)" d="M0,0L-6,0"/><path transform="translate(40,220.90909090909093)" d="M0,0L-6,0"/><path transform="translate(40,216.36363636363635)" d="M0,0L-6,0"/><path transform="translate(40,211.8181818181818)" d="M0,0L-6,0"/><path transform="translate(40,207.27272727272728)" d="M0,0L-6,0"/><path transform="translate(40,202.7272727272727)" d="M0,0L-6,0"/><path transform="translate(40,198.1818181818182)" d="M0,0L-6,0"/><path transform="translate(40,193.63636363636365)" d="M0,0L-6,0"/><path transform="translate(40,189.09090909090907)" d="M0,0L-6,0"/><path transform="translate(40,184.54545454545453)" d="M0,0L-6,0"/><path transform="translate(40,180)" d="M0,0L-6,0"/><path transform="translate(40,175.45454545454547)" d="M0,0L-6,0"/><path transform="translate(40,170.9090909090909)" d="M0,0L-6,0"/><path transform="translate(40,166.36363636363637)" d="M0,0L-6,0"/><path transform="translate(40,161.8181818181818)" d="M0,0L-6,0"/><path transform="translate(40,157.27272727272725)" d="M0,0L-6,0"/><path transform="translate(40,152.72727272727272)" d="M0,0L-6,0"/><path transform="translate(40,148.1818181818182)" d="M0,0L-6,0"/><path transform="translate(40,143.63636363636363)" d="M0,0L-6,0"/><path transform="translate(40,139.0909090909091)" d="M0,0L-6,0"/><path transform="translate(40,134.54545454545456)" d="M0,0L-6,0"/><path transform="translate(40,130)" d="M0,0L-6,0"/><path transform="translate(40,125.45454545454547)" d="M0,0L-6,0"/><path transform="translate(40,120.9090909090909)" d="M0,0L-6,0"/><path transform="translate(40,116.36363636363635)" d="M0,0L-6,0"/><path transform="translate(40,111.81818181818183)" d="M0,0L-6,0"/><path transform="translate(40,107.27272727272727)" d="M0,0L-6,0"/><path transform="translate(40,102.72727272727272)" d="M0,0L-6,0"/><path transform="translate(40,98.18181818181819)" d="M0,0L-6,0"/><path transform="translate(40,93.63636363636363)" d="M0,0L-6,0"/><path transform="translate(40,89.0909090909091)" d="M0,0L-6,0"/><path transform="translate(40,84.54545454545455)" d="M0,0L-6,0"/><path transform="translate(40,80)" d="M0,0L-6,0"/><path transform="translate(40,75.45454545454545)" d="M0,0L-6,0"/><path transform="translate(40,70.9090909090909)" d="M0,0L-6,0"/><path transform="translate(40,66.36363636363637)" d="M0,0L-6,0"/><path transform="translate(40,61.81818181818181)" d="M0,0L-6,0"/><path transform="translate(40,57.27272727272728)" d="M0,0L-6,0"/><path transform="translate(40,52.72727272727273)" d="M0,0L-6,0"/><path transform="translate(40,48.18181818181818)" d="M0,0L-6,0"/><path transform="translate(40,43.63636363636364)" d="M0,0L-6,0"/><path transform="translate(40,39.09090909090909)" d="M0,0L-6,0"/><path transform="translate(40,34.54545454545455)" d="M0,0L-6,0"/><path transform="translate(40,30)" d="M0,0L-6,0"/></g><g aria-label="y-axis tick label" text-anchor="end" font-variant="tabular-nums" transform="translate(-9,0)"><text y="0.32em" transform="translate(40,480)">100</text><text y="0.32em" transform="translate(40,475.4545454545455)"/><text y="0.32em" transform="translate(40,470.90909090909093)"/><text y="0.32em" transform="translate(40,466.36363636363643)"/><text y="0.32em" transform="translate(40,461.81818181818176)"/><text y="0.32em" transform="translate(40,457.27272727272725)"/><text y="0.32em" transform="translate(40,452.72727272727275)"/><text y="0.32em" transform="translate(40,448.1818181818182)"/><text y="0.32em" transform="translate(40,443.6363636363637)"/><text y="0.32em" transform="translate(40,439.0909090909091)"/><text y="0.32em" transform="translate(40,434.5454545454545)">90</text><text y="0.32em" transform="translate(40,429.99999999999994)"/><text y="0.32em" transform="translate(40,425.45454545454544)"/><text y="0.32em" transform="translate(40,420.90909090909093)"/><text y="0.32em" transform="translate(40,416.3636363636364)"/><text y="0.32em" transform="translate(40,411.81818181818187)"/><text y="0.32em" transform="translate(40,407.27272727272725)"/><text y="0.32em" transform="translate(40,402.7272727272727)"/><text y="0.32em" transform="translate(40,398.1818181818182)"/><text y="0.32em" transform="translate(40,393.6363636363636)"/><text y="0.32em" transform="translate(40,389.0909090909091)">80</text><text y="0.32em" transform="translate(40,384.54545454545456)"/><text y="0.32em" transform="translate(40,380)"/><text y="0.32em" transform="translate(40,375.45454545454544)"/><text y="0.32em" transform="translate(40,370.9090909090909)"/><text y="0.32em" transform="translate(40,366.3636363636364)"/><text y="0.32em" transform="translate(40,361.8181818181818)"/><text y="0.32em" transform="translate(40,357.2727272727273)"/><text y="0.32em" transform="translate(40,352.72727272727275)"/><text y="0.32em" transform="translate(40,348.1818181818182)"/><text y="0.32em" transform="translate(40,343.6363636363636)">70</text><text y="0.32em" transform="translate(40,339.09090909090907)"/><text y="0.32em" transform="translate(40,334.54545454545456)"/><text y="0.32em" transform="translate(40,330)"/><text y="0.32em" transform="translate(40,325.45454545454544)"/><text y="0.32em" transform="translate(40,320.90909090909093)"/><text y="0.32em" transform="translate(40,316.3636363636364)"/><text y="0.32em" transform="translate(40,311.8181818181818)"/><text y="0.32em" transform="translate(40,307.27272727272725)"/><text y="0.32em" transform="translate(40,302.72727272727275)"/><text y="0.32em" transform="translate(40,298.1818181818182)">60</text><text y="0.32em" transform="translate(40,293.6363636363636)"/><text y="0.32em" transform="translate(40,289.0909090909091)"/><text y="0.32em" transform="translate(40,284.5454545454545)"/><text y="0.32em" transform="translate(40,280)"/><text y="0.32em" transform="translate(40,275.45454545454544)"/><text y="0.32em" transform="translate(40,270.90909090909093)"/><text y="0.32em" transform="translate(40,266.3636363636364)"/><text y="0.32em" transform="translate(40,261.8181818181818)"/><text y="0.32em" transform="translate(40,257.2727272727273)"/><text y="0.32em" transform="translate(40,252.72727272727275)">50</text><text y="0.32em" transform="translate(40,248.1818181818182)"/><text y="0.32em" transform="translate(40,243.63636363636363)"/><text y="0.32em" transform="translate(40,239.0909090909091)"/><text y="0.32em" transform="translate(40,234.54545454545456)"/><text y="0.32em" transform="translate(40,229.99999999999997)"/><text y="0.32em" transform="translate(40,225.45454545454547)"/><text y="0.32em" transform="translate(40,220.90909090909093)"/><text y="0.32em" transform="translate(40,216.36363636363635)"/><text y="0.32em" transform="translate(40,211.8181818181818)"/><text y="0.32em" transform="translate(40,207.27272727272728)">40</text><text y="0.32em" transform="translate(40,202.7272727272727)"/><text y="0.32em" transform="translate(40,198.1818181818182)"/><text y="0.32em" transform="translate(40,193.63636363636365)"/><text y="0.32em" transform="translate(40,189.09090909090907)"/><text y="0.32em" transform="translate(40,184.54545454545453)"/><text y="0.32em" transform="translate(40,180)"/><text y="0.32em" transform="translate(40,175.45454545454547)"/><text y="0.32em" transform="translate(40,170.9090909090909)"/><text y="0.32em" transform="translate(40,166.36363636363637)"/><text y="0.32em" transform="translate(40,161.8181818181818)">30</text><text y="0.32em" transform="translate(40,157.27272727272725)"/><text y="0.32em" transform="translate(40,152.72727272727272)"/><text y="0.32em" transform="translate(40,148.1818181818182)"/><text y="0.32em" transform="translate(40,143.63636363636363)"/><text y="0.32em" transform="translate(40,139.0909090909091)"/><text y="0.32em" transform="translate(40,134.54545454545456)"/><text y="0.32em" transform="translate(40,130)"/><text y="0.32em" transform="translate(40,125.45454545454547)"/><text y="0.32em" transform="translate(40,120.9090909090909)"/><text y="0.32em" transform="translate(40,116.36363636363635)">20</text><text y="0.32em" transform="translate(40,111.81818181818183)"/><text y="0.32em" transform="translate(40,107.27272727272727)"/><text y="0.32em" transform="translate(40,102.72727272727272)"/><text y="0.32em" transform="translate(40,98.18181818181819)"/><text y="0.32em" transform="translate(40,93.63636363636363)"/><text y="0.32em" transform="translate(40,89.0909090909091)"/><text y="0.32em" transform="translate(40,84.54545454545455)"/><text y="0.32em" transform="translate(40,80)"/><text y="0.32em" transform="translate(40,75.45454545454545)"/><text y="0.32em" transform="translate(40,70.9090909090909)">10</text><text y="0.32em" transform="translate(40,66.36363636363637)"/><text y="0.32em" transform="translate(40,61.81818181818181)"/><text y="0.32em" transform="translate(40,57.27272727272728)"/><text y="0.32em" transform="translate(40,52.72727272727273)"/><text y="0.32em" transform="translate(40,48.18181818181818)"/><text y="0.32em" transform="translate(40,43.63636363636364)"/><text y="0.32em" transform="translate(40,39.09090909090909)"/><text y="0.32em" transform="translate(40,34.54545454545455)"/><text y="0.32em" transform="translate(40,30)"/></g><g aria-label="y-axis label" text-anchor="start" transform="translate(-37,-27)"><text y="0.71em" transform="translate(40,30)">↓ y</text></g><g aria-label="x-grid" aria-hidden="true" stroke="currentColor" stroke-opacity="0.1"><line x1="40" x2="40" y1="30" y2="480"/><line x1="44.44444444444445" x2="44.44444444444445" y1="30" y2="480"/><line x1="48.888888888888886" x2="48.888888888888886" y1="30" y2="480"/><line x1="53.333333333333336" x2="53.333333333333336" y1="30" y2="480"/><line x1="57.77777777777777" x2="57.77777777777777" y1="30" y2="480"/><line x1="62.22222222222222" x2="62.22222222222222" y1="30" y2="480"/><line x1="66.66666666666667" x2="66.66666666666667" y1="30" y2="480"/><line x1="71.11111111111111" x2="71.11111111111111" y1="30" y2="480"/><line x1="75.55555555555556" x2="75.55555555555556" y1="30" y2="480"/><line x1="80" x2="80" y1="30" y2="480"/><line x1="84.44444444444444" x2="84.44444444444444" y1="30" y2="480"/><line x1="88.88888888888889" x2="88.88888888888889" y1="30" y2="480"/><line x1="93.33333333333334" x2="93.33333333333334" y1="30" y2="480"/><line x1="97.77777777777779" x2="97.77777777777779" y1="30" y2="480"/><line x1="102.22222222222221" x2="102.22222222222221" y1="30" y2="480"/><line x1="106.66666666666667" x2="106.66666666666667" y1="30" y2="480"/><line x1="111.11111111111111" x2="111.11111111111111" y1="30" y2="480"/><line x1="115.55555555555556" x2="115.55555555555556" y1="30" y2="480"/><line x1="120" x2="120" y1="30" y2="480"/><line x1="124.44444444444443" x2="124.44444444444443" y1="30" y2="480"/><line x1="128.88888888888889" x2="128.88888888888889" y1="30" y2="480"/><line x1="133.33333333333334" x2="133.33333333333334" y1="30" y2="480"/><line x1="137.77777777777777" x2="137.77777777777777" y1="30" y2="480"/><line x1="142.22222222222223" x2="142.22222222222223" y1="30" y2="480"/><line x1="146.66666666666669" x2="146.66666666666669" y1="30" y2="480"/><line x1="151.11111111111111" x2="151.11111111111111" y1="30" y2="480"/><line x1="155.55555555555557" x2="155.55555555555557" y1="30" y2="480"/><line x1="160" x2="160" y1="30" y2="480"/><line x1="164.44444444444443" x2="164.44444444444443" y1="30" y2="480"/><line x1="168.88888888888889" x2="168.88888888888889" y1="30" y2="480"/><line x1="173.33333333333334" x2="173.33333333333334" y1="30" y2="480"/><line x1="177.77777777777777" x2="177.77777777777777" y1="30" y2="480"/><line x1="182.22222222222223" x2="182.22222222222223" y1="30" y2="480"/><line x1="186.66666666666669" x2="186.66666666666669" y1="30" y2="480"/><line x1="191.11111111111111" x2="191.11111111111111" y1="30" y2="480"/><line x1="195.55555555555554" x2="195.55555555555554" y1="30" y2="480"/><line x1="200" x2="200" y1="30" y2="480"/><line x1="204.44444444444446" x2="204.44444444444446" y1="30" y2="480"/><line x1="208.88888888888886" x2="208.88888888888886" y1="30" y2="480"/><line x1="213.33333333333334" x2="213.33333333333334" y1="30" y2="480"/><line x1="217.77777777777777" x2="217.77777777777777" y1="30" y2="480"/><line x1="222.22222222222223" x2="222.22222222222223" y1="30" y2="480"/><line x1="226.66666666666669" x2="226.66666666666669" y1="30" y2="480"/><line x1="231.11111111111111" x2="231.11111111111111" y1="30" y2="480"/><line x1="235.55555555555554" x2="235.55555555555554" y1="30" y2="480"/><line x1="240" x2="240" y1="30" y2="480"/><line x1="244.44444444444446" x2="244.44444444444446" y1="30" y2="480"/><line x1="248.88888888888889" x2="248.88888888888889" y1="30" y2="480"/><line x1="253.33333333333334" x2="253.33333333333334" y1="30" y2="480"/><line x1="257.77777777777777" x2="257.77777777777777" y1="30" y2="480"/><line x1="262.22222222222223" x2="262.22222222222223" y1="30" y2="480"/><line x1="266.66666666666663" x2="266.66666666666663" y1="30" y2="480"/><line x1="271.11111111111114" x2="271.11111111111114" y1="30" y2="480"/><line x1="275.5555555555556" x2="275.5555555555556" y1="30" y2="480"/><line x1="280" x2="280" y1="30" y2="480"/><line x1="284.44444444444446" x2="284.44444444444446" y1="30" y2="480"/><line x1="288.88888888888886" x2="288.88888888888886" y1="30" y2="480"/><line x1="293.33333333333337" x2="293.33333333333337" y1="30" y2="480"/><line x1="297.77777777777777" x2="297.77777777777777" y1="30" y2="480"/><line x1="302.22222222222223" x2="302.22222222222223" y1="30" y2="480"/><line x1="306.6666666666667" x2="306.6666666666667" y1="30" y2="480"/><line x1="311.1111111111111" x2="311.1111111111111" y1="30" y2="480"/><line x1="315.55555555555554" x2="315.55555555555554" y1="30" y2="480"/><line x1="320" x2="320" y1="30" y2="480"/><line x1="324.44444444444446" x2="324.44444444444446" y1="30" y2="480"/><line x1="328.88888888888886" x2="328.88888888888886" y1="30" y2="480"/><line x1="333.3333333333333" x2="333.3333333333333" y1="30" y2="480"/><line x1="337.7777777777778" x2="337.7777777777778" y1="30" y2="480"/><line x1="342.22222222222223" x2="342.22222222222223" y1="30" y2="480"/><line x1="346.6666666666667" x2="346.6666666666667" y1="30" y2="480"/><line x1="351.1111111111111" x2="351.1111111111111" y1="30" y2="480"/><line x1="355.55555555555554" x2="355.55555555555554" y1="30" y2="480"/><line x1="360.00000000000006" x2="360.00000000000006" y1="30" y2="480"/><line x1="364.44444444444446" x2="364.44444444444446" y1="30" y2="480"/><line x1="368.8888888888889" x2="368.8888888888889" y1="30" y2="480"/><line x1="373.3333333333333" x2="373.3333333333333" y1="30" y2="480"/><line x1="377.7777777777777" x2="377.7777777777777" y1="30" y2="480"/><line x1="382.22222222222223" x2="382.22222222222223" y1="30" y2="480"/><line x1="386.6666666666667" x2="386.6666666666667" y1="30" y2="480"/><line x1="391.11111111111114" x2="391.11111111111114" y1="30" y2="480"/><line x1="395.55555555555554" x2="395.55555555555554" y1="30" y2="480"/><line x1="400" x2="400" y1="30" y2="480"/><line x1="404.44444444444446" x2="404.44444444444446" y1="30" y2="480"/><line x1="408.88888888888886" x2="408.88888888888886" y1="30" y2="480"/><line x1="413.33333333333337" x2="413.33333333333337" y1="30" y2="480"/><line x1="417.77777777777777" x2="417.77777777777777" y1="30" y2="480"/><line x1="422.22222222222223" x2="422.22222222222223" y1="30" y2="480"/><line x1="426.6666666666667" x2="426.6666666666667" y1="30" y2="480"/><line x1="431.1111111111111" x2="431.1111111111111" y1="30" y2="480"/><line x1="435.55555555555554" x2="435.55555555555554" y1="30" y2="480"/><line x1="440" x2="440" y1="30" y2="480"/><line x1="444.44444444444446" x2="444.44444444444446" y1="30" y2="480"/><line x1="448.8888888888889" x2="448.8888888888889" y1="30" y2="480"/><line x1="453.33333333333337" x2="453.33333333333337" y1="30" y2="480"/><line x1="457.77777777777777" x2="457.77777777777777" y1="30" y2="480"/><line x1="462.2222222222222" x2="462.2222222222222" y1="30" y2="480"/><line x1="466.6666666666667" x2="466.6666666666667" y1="30" y2="480"/><line x1="471.11111111111114" x2="471.11111111111114" y1="30" y2="480"/><line x1="475.5555555555556" x2="475.5555555555556" y1="30" y2="480"/><line x1="480" x2="480" y1="30" y2="480"/></g><g aria-label="x-axis tick" aria-hidden="true" fill="none" stroke="currentColor"><path transform="translate(40,30)" d="M0,0L0,-6"/><path transform="translate(44.44444444444445,30)" d="M0,0L0,-6"/><path transform="translate(48.888888888888886,30)" d="M0,0L0,-6"/><path transform="translate(53.333333333333336,30)" d="M0,0L0,-6"/><path transform="translate(57.77777777777777,30)" d="M0,0L0,-6"/><path transform="translate(62.22222222222222,30)" d="M0,0L0,-6"/><path transform="translate(66.66666666666667,30)" d="M0,0L0,-6"/><path transform="translate(71.11111111111111,30)" d="M0,0L0,-6"/><path transform="translate(75.55555555555556,30)" d="M0,0L0,-6"/><path transform="translate(80,30)" d="M0,0L0,-6"/><path transform="translate(84.44444444444444,30)" d="M0,0L0,-6"/><path transform="translate(88.88888888888889,30)" d="M0,0L0,-6"/><path transform="translate(93.33333333333334,30)" d="M0,0L0,-6"/><path transform="translate(97.77777777777779,30)" d="M0,0L0,-6"/><path transform="translate(102.22222222222221,30)" d="M0,0L0,-6"/><path transform="translate(106.66666666666667,30)" d="M0,0L0,-6"/><path transform="translate(111.11111111111111,30)" d="M0,0L0,-6"/><path transform="translate(115.55555555555556,30)" d="M0,0L0,-6"/><path transform="translate(120,30)" d="M0,0L0,-6"/><path transform="translate(124.44444444444443,30)" d="M0,0L0,-6"/><path transform="translate(128.88888888888889,30)" d="M0,0L0,-6"/><path transform="translate(133.33333333333334,30)" d="M0,0L0,-6"/><path transform="translate(137.77777777777777,30)" d="M0,0L0,-6"/><path transform="translate(142.22222222222223,30)" d="M0,0L0,-6"/><path transform="translate(146.66666666666669,30)" d="M0,0L0,-6"/><path transform="translate(151.11111111111111,30)" d="M0,0L0,-6"/><path transform="translate(155.55555555555557,30)" d="M0,0L0,-6"/><path transform="translate(160,30)" d="M0,0L0,-6"/><path transform="translate(164.44444444444443,30)" d="M0,0L0,-6"/><path transform="translate(168.88888888888889,30)" d="M0,0L0,-6"/><path transform="translate(173.33333333333334,30)" d="M0,0L0,-6"/><path transform="translate(177.77777777777777,30)" d="M0,0L0,-6"/><path transform="translate(182.22222222222223,30)" d="M0,0L0,-6"/><path transform="translate(186.66666666666669,30)" d="M0,0L0,-6"/><path transform="translate(191.11111111111111,30)" d="M0,0L0,-6"/><path transform="translate(195.55555555555554,30)" d="M0,0L0,-6"/><path transform="translate(200,30)" d="M0,0L0,-6"/><path transform="translate(204.44444444444446,30)" d="M0,0L0,-6"/><path transform="translate(208.88888888888886,30)" d="M0,0L0,-6"/><path transform="translate(213.33333333333334,30)" d="M0,0L0,-6"/><path transform="translate(217.77777777777777,30)" d="M0,0L0,-6"/><path transform="translate(222.22222222222223,30)" d="M0,0L0,-6"/><path transform="translate(226.66666666666669,30)" d="M0,0L0,-6"/><path transform="translate(231.11111111111111,30)" d="M0,0L0,-6"/><path transform="translate(235.55555555555554,30)" d="M0,0L0,-6"/><path transform="translate(240,30)" d="M0,0L0,-6"/><path transform="translate(244.44444444444446,30)" d="M0,0L0,-6"/><path transform="translate(248.88888888888889,30)" d="M0,0L0,-6"/><path transform="translate(253.33333333333334,30)" d="M0,0L0,-6"/><path transform="translate(257.77777777777777,30)" d="M0,0L0,-6"/><path transform="translate(262.22222222222223,30)" d="M0,0L0,-6"/><path transform="translate(266.66666666666663,30)" d="M0,0L0,-6"/><path transform="translate(271.11111111111114,30)" d="M0,0L0,-6"/><path transform="translate(275.5555555555556,30)" d="M0,0L0,-6"/><path transform="translate(280,30)" d="M0,0L0,-6"/><path transform="translate(284.44444444444446,30)" d="M0,0L0,-6"/><path transform="translate(288.88888888888886,30)" d="M0,0L0,-6"/><path transform="translate(293.33333333333337,30)" d="M0,0L0,-6"/><path transform="translate(297.77777777777777,30)" d="M0,0L0,-6"/><path transform="translate(302.22222222222223,30)" d="M0,0L0,-6"/><path transform="translate(306.6666666666667,30)" d="M0,0L0,-6"/><path transform="translate(311.1111111111111,30)" d="M0,0L0,-6"/><path transform="translate(315.55555555555554,30)" d="M0,0L0,-6"/><path transform="translate(320,30)" d="M0,0L0,-6"/><path transform="translate(324.44444444444446,30)" d="M0,0L0,-6"/><path transform="translate(328.88888888888886,30)" d="M0,0L0,-6"/><path transform="translate(333.3333333333333,30)" d="M0,0L0,-6"/><path transform="translate(337.7777777777778,30)" d="M0,0L0,-6"/><path transform="translate(342.22222222222223,30)" d="M0,0L0,-6"/><path transform="translate(346.6666666666667,30)" d="M0,0L0,-6"/><path transform="translate(351.1111111111111,30)" d="M0,0L0,-6"/><path transform="translate(355.55555555555554,30)" d="M0,0L0,-6"/><path transform="translate(360.00000000000006,30)" d="M0,0L0,-6"/><path transform="translate(364.44444444444446,30)" d="M0,0L0,-6"/><path transform="translate(368.8888888888889,30)" d="M0,0L0,-6"/><path transform="translate(373.3333333333333,30)" d="M0,0L0,-6"/><path transform="translate(377.7777777777777,30)" d="M0,0L0,-6"/><path transform="translate(382.22222222222223,30)" d="M0,0L0,-6"/><path transform="translate(386.6666666666667,30)" d="M0,0L0,-6"/><path transform="translate(391.11111111111114,30)" d="M0,0L0,-6"/><path transform="translate(395.55555555555554,30)" d="M0,0L0,-6"/><path transform="translate(400,30)" d="M0,0L0,-6"/><path transform="translate(404.44444444444446,30)" d="M0,0L0,-6"/><path transform="translate(408.88888888888886,30)" d="M0,0L0,-6"/><path transform="translate(413.33333333333337,30)" d="M0,0L0,-6"/><path transform="translate(417.77777777777777,30)" d="M0,0L0,-6"/><path transform="translate(422.22222222222223,30)" d="M0,0L0,-6"/><path transform="translate(426.6666666666667,30)" d="M0,0L0,-6"/><path transform="translate(431.1111111111111,30)" d="M0,0L0,-6"/><path transform="translate(435.55555555555554,30)" d="M0,0L0,-6"/><path transform="translate(440,30)" d="M0,0L0,-6"/><path transform="translate(444.44444444444446,30)" d="M0,0L0,-6"/><path transform="translate(448.8888888888889,30)" d="M0,0L0,-6"/><path transform="translate(453.33333333333337,30)" d="M0,0L0,-6"/><path transform="translate(457.77777777777777,30)" d="M0,0L0,-6"/><path transform="translate(462.2222222222222,30)" d="M0,0L0,-6"/><path transform="translate(466.6666666666667,30)" d="M0,0L0,-6"/><path transform="translate(471.11111111111114,30)" d="M0,0L0,-6"/><path transform="translate(475.5555555555556,30)" d="M0,0L0,-6"/><path transform="translate(480,30)" d="M0,0L0,-6"/></g><g aria-label="x-axis tick label" font-variant="tabular-nums" transform="translate(0,-9)"><text transform="translate(40,30)"/><text transform="translate(44.44444444444445,30)"/><text transform="translate(48.888888888888886,30)"/><text transform="translate(53.333333333333336,30)"/><text transform="translate(57.77777777777777,30)"/><text transform="translate(62.22222222222222,30)"/><text transform="translate(66.66666666666667,30)"/><text transform="translate(71.11111111111111,30)"/><text transform="translate(75.55555555555556,30)"/><text transform="translate(80,30)">10</text><text transform="translate(84.44444444444444,30)"/><text transform="translate(88.88888888888889,30)"/><text transform="translate(93.33333333333334,30)"/><text transform="translate(97.77777777777779,30)"/><text transform="translate(102.22222222222221,30)"/><text transform="translate(106.66666666666667,30)"/><text transform="translate(111.11111111111111,30)"/><text transform="translate(115.55555555555556,30)"/><text transform="translate(120,30)"/><text transform="translate(124.44444444444443,30)">20</text><text transform="translate(128.88888888888889,30)"/><text transform="translate(133.33333333333334,30)"/><text transform="translate(137.77777777777777,30)"/><text transform="translate(142.22222222222223,30)"/><text transform="translate(146.66666666666669,30)"/><text transform="translate(151.11111111111111,30)"/><text transform="translate(155.55555555555557,30)"/><text transform="translate(160,30)"/><text transform="translate(164.44444444444443,30)"/><text transform="translate(168.88888888888889,30)">30</text><text transform="translate(173.33333333333334,30)"/><text transform="translate(177.77777777777777,30)"/><text transform="translate(182.22222222222223,30)"/><text transform="translate(186.66666666666669,30)"/><text transform="translate(191.11111111111111,30)"/><text transform="translate(195.55555555555554,30)"/><text transform="translate(200,30)"/><text transform="translate(204.44444444444446,30)"/><text transform="translate(208.88888888888886,30)"/><text transform="translate(213.33333333333334,30)">40</text><text transform="translate(217.77777777777777,30)"/><text transform="translate(222.22222222222223,30)"/><text transform="translate(226.66666666666669,30)"/><text transform="translate(231.11111111111111,30)"/><text transform="translate(235.55555555555554,30)"/><text transform="translate(240,30)"/><text transform="translate(244.44444444444446,30)"/><text transform="translate(248.88888888888889,30)"/><text transform="translate(253.33333333333334,30)"/><text transform="translate(257.77777777777777,30)">50</text><text transform="translate(262.22222222222223,30)"/><text transform="translate(266.66666666666663,30)"/><text transform="translate(271.11111111111114,30)"/><text transform="translate(275.5555555555556,30)"/><text transform="translate(280,30)"/><text transform="translate(284.44444444444446,30)"/><text transform="translate(288.88888888888886,30)"/><text transform="translate(293.33333333333337,30)"/><text transform="translate(297.77777777777777,30)"/><text transform="translate(302.22222222222223,30)">60</text><text transform="translate(306.6666666666667,30)"/><text transform="translate(311.1111111111111,30)"/><text transform="translate(315.55555555555554,30)"/><text transform="translate(320,30)"/><text transform="translate(324.44444444444446,30)"/><text transform="translate(328.88888888888886,30)"/><text transform="translate(333.3333333333333,30)"/><text transform="translate(337.7777777777778,30)"/><text transform="translate(342.22222222222223,30)"/><text transform="translate(346.6666666666667,30)">70</text><text transform="translate(351.1111111111111,30)"/><text transform="translate(355.55555555555554,30)"/><text transform="translate(360.00000000000006,30)"/><text transform="translate(364.44444444444446,30)"/><text transform="translate(368.8888888888889,30)"/><text transform="translate(373.3333333333333,30)"/><text transform="translate(377.7777777777777,30)"/><text transform="translate(382.22222222222223,30)"/><text transform="translate(386.6666666666667,30)"/><text transform="translate(391.11111111111114,30)">80</text><text transform="translate(395.55555555555554,30)"/><text transform="translate(400,30)"/><text transform="translate(404.44444444444446,30)"/><text transform="translate(408.88888888888886,30)"/><text transform="translate(413.33333333333337,30)"/><text transform="translate(417.77777777777777,30)"/><text transform="translate(422.22222222222223,30)"/><text transform="translate(426.6666666666667,30)"/><text transform="translate(431.1111111111111,30)"/><text transform="translate(435.55555555555554,30)">90</text><text transform="translate(440,30)"/><text transform="translate(444.44444444444446,30)"/><text transform="translate(448.8888888888889,30)"/><text transform="translate(453.33333333333337,30)"/><text transform="translate(457.77777777777777,30)"/><text transform="translate(462.2222222222222,30)"/><text transform="translate(466.6666666666667,30)"/><text transform="translate(471.11111111111114,30)"/><text transform="translate(475.5555555555556,30)"/><text transform="translate(480,30)">100</text></g><g aria-label="x-axis label" text-anchor="end" transform="translate(17,-27)"><text y="0.71em" transform="translate(480,30)">x →</text></g><g aria-label="rule" stroke="#ccc"><line x1="40" x2="40" y1="30" y2="480" stroke-opacity="0.2"/><line x1="44.44444444444445" x2="44.44444444444445" y1="30" y2="480" stroke-opacity="0.2"/><line x1="48.888888888888886" x2="48.888888888888886" y1="30" y2="480" stroke-opacity="0.2"/><line x1="53.333333333333336" x2="53.333333333333336" y1="30" y2="480" stroke-opacity="0.2"/><line x1="57.77777777777777" x2="57.77777777777777" y1="30" y2="480" stroke-opacity="0.2"/><line x1="62.22222222222222" x2="62.22222222222222" y1="30" y2="480" stroke-opacity="0.2"/><line x1="66.66666666666667" x2="66.66666666666667" y1="30" y2="480" stroke-opacity="0.2"/><line x1="71.11111111111111" x2="71.11111111111111" y1="30" y2="480" stroke-opacity="0.2"/><line x1="75.55555555555556" x2="75.55555555555556" y1="30" y2="480" stroke-opacity="0.2"/><line x1="80" x2="80" y1="30" y2="480" stroke-opacity="1"/><line x1="84.44444444444444" x2="84.44444444444444" y1="30" y2="480" stroke-opacity="0.2"/><line x1="88.88888888888889" x2="88.88888888888889" y1="30" y2="480" stroke-opacity="0.2"/><line x1="93.33333333333334" x2="93.33333333333334" y1="30" y2="480" stroke-opacity="0.2"/><line x1="97.77777777777779" x2="97.77777777777779" y1="30" y2="480" stroke-opacity="0.2"/><line x1="102.22222222222221" x2="102.22222222222221" y1="30" y2="480" stroke-opacity="0.2"/><line x1="106.66666666666667" x2="106.66666666666667" y1="30" y2="480" stroke-opacity="0.2"/><line x1="111.11111111111111" x2="111.11111111111111" y1="30" y2="480" stroke-opacity="0.2"/><line x1="115.55555555555556" x2="115.55555555555556" y1="30" y2="480" stroke-opacity="0.2"/><line x1="120" x2="120" y1="30" y2="480" stroke-opacity="0.2"/><line x1="124.44444444444443" x2="124.44444444444443" y1="30" y2="480" stroke-opacity="1"/><line x1="128.88888888888889" x2="128.88888888888889" y1="30" y2="480" stroke-opacity="0.2"/><line x1="133.33333333333334" x2="133.33333333333334" y1="30" y2="480" stroke-opacity="0.2"/><line x1="137.77777777777777" x2="137.77777777777777" y1="30" y2="480" stroke-opacity="0.2"/><line x1="142.22222222222223" x2="142.22222222222223" y1="30" y2="480" stroke-opacity="0.2"/><line x1="146.66666666666669" x2="146.66666666666669" y1="30" y2="480" stroke-opacity="0.2"/><line x1="151.11111111111111" x2="151.11111111111111" y1="30" y2="480" stroke-opacity="0.2"/><line x1="155.55555555555557" x2="155.55555555555557" y1="30" y2="480" stroke-opacity="0.2"/><line x1="160" x2="160" y1="30" y2="480" stroke-opacity="0.2"/><line x1="164.44444444444443" x2="164.44444444444443" y1="30" y2="480" stroke-opacity="0.2"/><line x1="168.88888888888889" x2="168.88888888888889" y1="30" y2="480" stroke-opacity="1"/><line x1="173.33333333333334" x2="173.33333333333334" y1="30" y2="480" stroke-opacity="0.2"/><line x1="177.77777777777777" x2="177.77777777777777" y1="30" y2="480" stroke-opacity="0.2"/><line x1="182.22222222222223" x2="182.22222222222223" y1="30" y2="480" stroke-opacity="0.2"/><line x1="186.66666666666669" x2="186.66666666666669" y1="30" y2="480" stroke-opacity="0.2"/><line x1="191.11111111111111" x2="191.11111111111111" y1="30" y2="480" stroke-opacity="0.2"/><line x1="195.55555555555554" x2="195.55555555555554" y1="30" y2="480" stroke-opacity="0.2"/><line x1="200" x2="200" y1="30" y2="480" stroke-opacity="0.2"/><line x1="204.44444444444446" x2="204.44444444444446" y1="30" y2="480" stroke-opacity="0.2"/><line x1="208.88888888888886" x2="208.88888888888886" y1="30" y2="480" stroke-opacity="0.2"/><line x1="213.33333333333334" x2="213.33333333333334" y1="30" y2="480" stroke-opacity="1"/><line x1="217.77777777777777" x2="217.77777777777777" y1="30" y2="480" stroke-opacity="0.2"/><line x1="222.22222222222223" x2="222.22222222222223" y1="30" y2="480" stroke-opacity="0.2"/><line x1="226.66666666666669" x2="226.66666666666669" y1="30" y2="480" stroke-opacity="0.2"/><line x1="231.11111111111111" x2="231.11111111111111" y1="30" y2="480" stroke-opacity="0.2"/><line x1="235.55555555555554" x2="235.55555555555554" y1="30" y2="480" stroke-opacity="0.2"/><line x1="240" x2="240" y1="30" y2="480" stroke-opacity="0.2"/><line x1="244.44444444444446" x2="244.44444444444446" y1="30" y2="480" stroke-opacity="0.2"/><line x1="248.88888888888889" x2="248.88888888888889" y1="30" y2="480" stroke-opacity="0.2"/><line x1="253.33333333333334" x2="253.33333333333334" y1="30" y2="480" stroke-opacity="0.2"/><line x1="257.77777777777777" x2="257.77777777777777" y1="30" y2="480" stroke-opacity="1"/><line x1="262.22222222222223" x2="262.22222222222223" y1="30" y2="480" stroke-opacity="0.2"/><line x1="266.66666666666663" x2="266.66666666666663" y1="30" y2="480" stroke-opacity="0.2"/><line x1="271.11111111111114" x2="271.11111111111114" y1="30" y2="480" stroke-opacity="0.2"/><line x1="275.5555555555556" x2="275.5555555555556" y1="30" y2="480" stroke-opacity="0.2"/><line x1="280" x2="280" y1="30" y2="480" stroke-opacity="0.2"/><line x1="284.44444444444446" x2="284.44444444444446" y1="30" y2="480" stroke-opacity="0.2"/><line x1="288.88888888888886" x2="288.88888888888886" y1="30" y2="480" stroke-opacity="0.2"/><line x1="293.33333333333337" x2="293.33333333333337" y1="30" y2="480" stroke-opacity="0.2"/><line x1="297.77777777777777" x2="297.77777777777777" y1="30" y2="480" stroke-opacity="0.2"/><line x1="302.22222222222223" x2="302.22222222222223" y1="30" y2="480" stroke-opacity="1"/><line x1="306.6666666666667" x2="306.6666666666667" y1="30" y2="480" stroke-opacity="0.2"/><line x1="311.1111111111111" x2="311.1111111111111" y1="30" y2="480" stroke-opacity="0.2"/><line x1="315.55555555555554" x2="315.55555555555554" y1="30" y2="480" stroke-opacity="0.2"/><line x1="320" x2="320" y1="30" y2="480" stroke-opacity="0.2"/><line x1="324.44444444444446" x2="324.44444444444446" y1="30" y2="480" stroke-opacity="0.2"/><line x1="328.88888888888886" x2="328.88888888888886" y1="30" y2="480" stroke-opacity="0.2"/><line x1="333.3333333333333" x2="333.3333333333333" y1="30" y2="480" stroke-opacity="0.2"/><line x1="337.7777777777778" x2="337.7777777777778" y1="30" y2="480" stroke-opacity="0.2"/><line x1="342.22222222222223" x2="342.22222222222223" y1="30" y2="480" stroke-opacity="0.2"/><line x1="346.6666666666667" x2="346.6666666666667" y1="30" y2="480" stroke-opacity="1"/><line x1="351.1111111111111" x2="351.1111111111111" y1="30" y2="480" stroke-opacity="0.2"/><line x1="355.55555555555554" x2="355.55555555555554" y1="30" y2="480" stroke-opacity="0.2"/><line x1="360.00000000000006" x2="360.00000000000006" y1="30" y2="480" stroke-opacity="0.2"/><line x1="364.44444444444446" x2="364.44444444444446" y1="30" y2="480" stroke-opacity="0.2"/><line x1="368.8888888888889" x2="368.8888888888889" y1="30" y2="480" stroke-opacity="0.2"/><line x1="373.3333333333333" x2="373.3333333333333" y1="30" y2="480" stroke-opacity="0.2"/><line x1="377.7777777777777" x2="377.7777777777777" y1="30" y2="480" stroke-opacity="0.2"/><line x1="382.22222222222223" x2="382.22222222222223" y1="30" y2="480" stroke-opacity="0.2"/><line x1="386.6666666666667" x2="386.6666666666667" y1="30" y2="480" stroke-opacity="0.2"/><line x1="391.11111111111114" x2="391.11111111111114" y1="30" y2="480" stroke-opacity="1"/><line x1="395.55555555555554" x2="395.55555555555554" y1="30" y2="480" stroke-opacity="0.2"/><line x1="400" x2="400" y1="30" y2="480" stroke-opacity="0.2"/><line x1="404.44444444444446" x2="404.44444444444446" y1="30" y2="480" stroke-opacity="0.2"/><line x1="408.88888888888886" x2="408.88888888888886" y1="30" y2="480" stroke-opacity="0.2"/><line x1="413.33333333333337" x2="413.33333333333337" y1="30" y2="480" stroke-opacity="0.2"/><line x1="417.77777777777777" x2="417.77777777777777" y1="30" y2="480" stroke-opacity="0.2"/><line x1="422.22222222222223" x2="422.22222222222223" y1="30" y2="480" stroke-opacity="0.2"/><line x1="426.6666666666667" x2="426.6666666666667" y1="30" y2="480" stroke-opacity="0.2"/><line x1="431.1111111111111" x2="431.1111111111111" y1="30" y2="480" stroke-opacity="0.2"/><line x1="435.55555555555554" x2="435.55555555555554" y1="30" y2="480" stroke-opacity="1"/><line x1="440" x2="440" y1="30" y2="480" stroke-opacity="0.2"/><line x1="444.44444444444446" x2="444.44444444444446" y1="30" y2="480" stroke-opacity="0.2"/><line x1="448.8888888888889" x2="448.8888888888889" y1="30" y2="480" stroke-opacity="0.2"/><line x1="453.33333333333337" x2="453.33333333333337" y1="30" y2="480" stroke-opacity="0.2"/><line x1="457.77777777777777" x2="457.77777777777777" y1="30" y2="480" stroke-opacity="0.2"/><line x1="462.2222222222222" x2="462.2222222222222" y1="30" y2="480" stroke-opacity="0.2"/><line x1="466.6666666666667" x2="466.6666666666667" y1="30" y2="480" stroke-opacity="0.2"/><line x1="471.11111111111114" x2="471.11111111111114" y1="30" y2="480" stroke-opacity="0.2"/><line x1="475.5555555555556" x2="475.5555555555556" y1="30" y2="480" stroke-opacity="0.2"/><line x1="480" x2="480" y1="30" y2="480" stroke-opacity="1"/></g><g aria-label="rule" stroke="#ccc"><line x1="40" x2="480" y1="30" y2="30" stroke-opacity="0.2"/><line x1="40" x2="480" y1="34.54545454545455" y2="34.54545454545455" stroke-opacity="0.2"/><line x1="40" x2="480" y1="39.09090909090909" y2="39.09090909090909" stroke-opacity="0.2"/><line x1="40" x2="480" y1="43.63636363636364" y2="43.63636363636364" stroke-opacity="0.2"/><line x1="40" x2="480" y1="48.18181818181818" y2="48.18181818181818" stroke-opacity="0.2"/><line x1="40" x2="480" y1="52.72727272727273" y2="52.72727272727273" stroke-opacity="0.2"/><line x1="40" x2="480" y1="57.27272727272728" y2="57.27272727272728" stroke-opacity="0.2"/><line x1="40" x2="480" y1="61.81818181818181" y2="61.81818181818181" stroke-opacity="0.2"/><line x1="40" x2="480" y1="66.36363636363637" y2="66.36363636363637" stroke-opacity="0.2"/><line x1="40" x2="480" y1="70.9090909090909" y2="70.9090909090909" stroke-opacity="1"/><line x1="40" x2="480" y1="75.45454545454545" y2="75.45454545454545" stroke-opacity="0.2"/><line x1="40" x2="480" y1="80" y2="80" stroke-opacity="0.2"/><line x1="40" x2="480" y1="84.54545454545455" y2="84.54545454545455" stroke-opacity="0.2"/><line x1="40" x2="480" y1="89.0909090909091" y2="89.0909090909091" stroke-opacity="0.2"/><line x1="40" x2="480" y1="93.63636363636363" y2="93.63636363636363" stroke-opacity="0.2"/><line x1="40" x2="480" y1="98.18181818181819" y2="98.18181818181819" stroke-opacity="0.2"/><line x1="40" x2="480" y1="102.72727272727272" y2="102.72727272727272" stroke-opacity="0.2"/><line x1="40" x2="480" y1="107.27272727272727" y2="107.27272727272727" stroke-opacity="0.2"/><line x1="40" x2="480" y1="111.81818181818183" y2="111.81818181818183" stroke-opacity="0.2"/><line x1="40" x2="480" y1="116.36363636363635" y2="116.36363636363635" stroke-opacity="1"/><line x1="40" x2="480" y1="120.9090909090909" y2="120.9090909090909" stroke-opacity="0.2"/><line x1="40" x2="480" y1="125.45454545454547" y2="125.45454545454547" stroke-opacity="0.2"/><line x1="40" x2="480" y1="130" y2="130" stroke-opacity="0.2"/><line x1="40" x2="480" y1="134.54545454545456" y2="134.54545454545456" stroke-opacity="0.2"/><line x1="40" x2="480" y1="139.0909090909091" y2="139.0909090909091" stroke-opacity="0.2"/><line x1="40" x2="480" y1="143.63636363636363" y2="143.63636363636363" stroke-opacity="0.2"/><line x1="40" x2="480" y1="148.1818181818182" y2="148.1818181818182" stroke-opacity="0.2"/><line x1="40" x2="480" y1="152.72727272727272" y2="152.72727272727272" stroke-opacity="0.2"/><line x1="40" x2="480" y1="157.27272727272725" y2="157.27272727272725" stroke-opacity="0.2"/><line x1="40" x2="480" y1="161.8181818181818" y2="161.8181818181818" stroke-opacity="1"/><line x1="40" x2="480" y1="166.36363636363637" y2="166.36363636363637" stroke-opacity="0.2"/><line x1="40" x2="480" y1="170.9090909090909" y2="170.9090909090909" stroke-opacity="0.2"/><line x1="40" x2="480" y1="175.45454545454547" y2="175.45454545454547" stroke-opacity="0.2"/><line x1="40" x2="480" y1="180" y2="180" stroke-opacity="0.2"/><line x1="40" x2="480" y1="184.54545454545453" y2="184.54545454545453" stroke-opacity="0.2"/><line x1="40" x2="480" y1="189.09090909090907" y2="189.09090909090907" stroke-opacity="0.2"/><line x1="40" x2="480" y1="193.63636363636365" y2="193.63636363636365" stroke-opacity="0.2"/><line x1="40" x2="480" y1="198.1818181818182" y2="198.1818181818182" stroke-opacity="0.2"/><line x1="40" x2="480" y1="202.7272727272727" y2="202.7272727272727" stroke-opacity="0.2"/><line x1="40" x2="480" y1="207.27272727272728" y2="207.27272727272728" stroke-opacity="1"/><line x1="40" x2="480" y1="211.8181818181818" y2="211.8181818181818" stroke-opacity="0.2"/><line x1="40" x2="480" y1="216.36363636363635" y2="216.36363636363635" stroke-opacity="0.2"/><line x1="40" x2="480" y1="220.90909090909093" y2="220.90909090909093" stroke-opacity="0.2"/><line x1="40" x2="480" y1="225.45454545454547" y2="225.45454545454547" stroke-opacity="0.2"/><line x1="40" x2="480" y1="229.99999999999997" y2="229.99999999999997" stroke-opacity="0.2"/><line x1="40" x2="480" y1="234.54545454545456" y2="234.54545454545456" stroke-opacity="0.2"/><line x1="40" x2="480" y1="239.0909090909091" y2="239.0909090909091" stroke-opacity="0.2"/><line x1="40" x2="480" y1="243.63636363636363" y2="243.63636363636363" stroke-opacity="0.2"/><line x1="40" x2="480" y1="248.1818181818182" y2="248.1818181818182" stroke-opacity="0.2"/><line x1="40" x2="480" y1="252.72727272727275" y2="252.72727272727275" stroke-opacity="1"/><line x1="40" x2="480" y1="257.2727272727273" y2="257.2727272727273" stroke-opacity="0.2"/><line x1="40" x2="480" y1="261.8181818181818" y2="261.8181818181818" stroke-opacity="0.2"/><line x1="40" x2="480" y1="266.3636363636364" y2="266.3636363636364" stroke-opacity="0.2"/><line x1="40" x2="480" y1="270.90909090909093" y2="270.90909090909093" stroke-opacity="0.2"/><line x1="40" x2="480" y1="275.45454545454544" y2="275.45454545454544" stroke-opacity="0.2"/><line x1="40" x2="480" y1="280" y2="280" stroke-opacity="0.2"/><line x1="40" x2="480" y1="284.5454545454545" y2="284.5454545454545" stroke-opacity="0.2"/><line x1="40" x2="480" y1="289.0909090909091" y2="289.0909090909091" stroke-opacity="0.2"/><line x1="40" x2="480" y1="293.6363636363636" y2="293.6363636363636" stroke-opacity="0.2"/><line x1="40" x2="480" y1="298.1818181818182" y2="298.1818181818182" stroke-opacity="1"/><line x1="40" x2="480" y1="302.72727272727275" y2="302.72727272727275" stroke-opacity="0.2"/><line x1="40" x2="480" y1="307.27272727272725" y2="307.27272727272725" stroke-opacity="0.2"/><line x1="40" x2="480" y1="311.8181818181818" y2="311.8181818181818" stroke-opacity="0.2"/><line x1="40" x2="480" y1="316.3636363636364" y2="316.3636363636364" stroke-opacity="0.2"/><line x1="40" x2="480" y1="320.90909090909093" y2="320.90909090909093" stroke-opacity="0.2"/><line x1="40" x2="480" y1="325.45454545454544" y2="325.45454545454544" stroke-opacity="0.2"/><line x1="40" x2="480" y1="330" y2="330" stroke-opacity="0.2"/><line x1="40" x2="480" y1="334.54545454545456" y2="334.54545454545456" stroke-opacity="0.2"/><line x1="40" x2="480" y1="339.09090909090907" y2="339.09090909090907" stroke-opacity="0.2"/><line x1="40" x2="480" y1="343.6363636363636" y2="343.6363636363636" stroke-opacity="1"/><line x1="40" x2="480" y1="348.1818181818182" y2="348.1818181818182" stroke-opacity="0.2"/><line x1="40" x2="480" y1="352.72727272727275" y2="352.72727272727275" stroke-opacity="0.2"/><line x1="40" x2="480" y1="357.2727272727273" y2="357.2727272727273" stroke-opacity="0.2"/><line x1="40" x2="480" y1="361.8181818181818" y2="361.8181818181818" stroke-opacity="0.2"/><line x1="40" x2="480" y1="366.3636363636364" y2="366.3636363636364" stroke-opacity="0.2"/><line x1="40" x2="480" y1="370.9090909090909" y2="370.9090909090909" stroke-opacity="0.2"/><line x1="40" x2="480" y1="375.45454545454544" y2="375.45454545454544" stroke-opacity="0.2"/><line x1="40" x2="480" y1="380" y2="380" stroke-opacity="0.2"/><line x1="40" x2="480" y1="384.54545454545456" y2="384.54545454545456" stroke-opacity="0.2"/><line x1="40" x2="480" y1="389.0909090909091" y2="389.0909090909091" stroke-opacity="1"/><line x1="40" x2="480" y1="393.6363636363636" y2="393.6363636363636" stroke-opacity="0.2"/><line x1="40" x2="480" y1="398.1818181818182" y2="398.1818181818182" stroke-opacity="0.2"/><line x1="40" x2="480" y1="402.7272727272727" y2="402.7272727272727" stroke-opacity="0.2"/><line x1="40" x2="480" y1="407.27272727272725" y2="407.27272727272725" stroke-opacity="0.2"/><line x1="40" x2="480" y1="411.81818181818187" y2="411.81818181818187" stroke-opacity="0.2"/><line x1="40" x2="480" y1="416.3636363636364" y2="416.3636363636364" stroke-opacity="0.2"/><line x1="40" x2="480" y1="420.90909090909093" y2="420.90909090909093" stroke-opacity="0.2"/><line x1="40" x2="480" y1="425.45454545454544" y2="425.45454545454544" stroke-opacity="0.2"/><line x1="40" x2="480" y1="429.99999999999994" y2="429.99999999999994" stroke-opacity="0.2"/><line x1="40" x2="480" y1="434.5454545454545" y2="434.5454545454545" stroke-opacity="1"/><line x1="40" x2="480" y1="439.0909090909091" y2="439.0909090909091" stroke-opacity="0.2"/><line x1="40" x2="480" y1="443.6363636363637" y2="443.6363636363637" stroke-opacity="0.2"/><line x1="40" x2="480" y1="448.1818181818182" y2="448.1818181818182" stroke-opacity="0.2"/><line x1="40" x2="480" y1="452.72727272727275" y2="452.72727272727275" stroke-opacity="0.2"/><line x1="40" x2="480" y1="457.27272727272725" y2="457.27272727272725" stroke-opacity="0.2"/><line x1="40" x2="480" y1="461.81818181818176" y2="461.81818181818176" stroke-opacity="0.2"/><line x1="40" x2="480" y1="466.36363636363643" y2="466.36363636363643" stroke-opacity="0.2"/><line x1="40" x2="480" y1="470.90909090909093" y2="470.90909090909093" stroke-opacity="0.2"/><line x1="40" x2="480" y1="475.4545454545455" y2="475.4545454545455" stroke-opacity="0.2"/><line x1="40" x2="480" y1="480" y2="480" stroke-opacity="1"/></g><rect aria-label="frame" fill="none" stroke="currentColor" x="40" y="30" width="440" height="450"/><g aria-label="dot"><circle cx="80" cy="70.9090909090909" r="6" fill="darkgrey"/><circle cx="257.77777777777777" cy="252.72727272727275" r="6" fill="gold"/><circle cx="435.55555555555554" cy="252.72727272727275" r="6" fill="blueviolet"/></g></svg>